<svg xmlns="http://www.w3.org/2000/svg" viewBox="0 0 684.77 745.5"><defs><style>.a{fill:none;stroke:#29abe2;stroke-linecap:round;stroke-linejoin:round;stroke-width:54px;}.b{fill:#29abe2;}</style></defs><path class="a" d="M1125.88,509.88a314.36,314.36,0,0,1-92.14,222.78c-.79-.33,29.94,153.34,29.94,153.34S855.09,825.27,810.5,825.27c-174.18,0-315.38-141.21-315.38-315.39S636.32,194.5,810.5,194.5,1125.88,335.7,1125.88,509.88Z" transform="translate(-468.12 -167.5)"/><path class="b" d="M677.37,415.61q0-27.74,17.81-56.21t52-47.15q34.17-18.67,79.71-18.68,42.33,0,74.74,15.62t50.07,42.48a104.23,104.23,0,0,1,17.66,58.39q0,24.81-10.07,43.5a133.07,133.07,0,0,1-23.94,32.26q-13.87,13.57-49.78,45.69a204,204,0,0,0-15.91,15.91,64.38,64.38,0,0,0-8.9,12.56,61.29,61.29,0,0,0-4.53,11.38q-1.61,5.7-4.82,20-5.55,30.38-34.74,30.37-15.18,0-25.55-9.93t-10.36-29.49q0-24.52,7.59-42.48a107.6,107.6,0,0,1,20.15-31.53Q821,494.73,842.32,476q18.69-16.35,27-24.67a83.36,83.36,0,0,0,14-18.54,44.77,44.77,0,0,0,5.7-22.19q0-23.36-17.38-39.41t-44.81-16.06q-32.11,0-47.3,16.2t-25.69,47.74q-9.93,33-37.66,33a37,37,0,0,1-27.59-11.53Q677.36,429,677.37,415.61Zm142.47,320a46,46,0,0,1-31.09-11.53q-13.29-11.53-13.29-32.26,0-18.4,12.85-30.95t31.53-12.56q18.39,0,30.95,12.56t12.55,30.95q0,20.43-13.14,32.11A44.34,44.34,0,0,1,819.84,735.59Z" transform="translate(-468.12 -167.5)"/></svg>